<?xml version="1.0" encoding="UTF-8"?>
<svg xmlns="http://www.w3.org/2000/svg" xmlns:xlink="http://www.w3.org/1999/xlink" width="50px" height="50px" viewBox="0 0 50 50" version="1.1">
<g id="surface1">
<path style=" stroke:none;fill-rule:nonzero;fill:rgb(0%,0%,0%);fill-opacity:1;" d="M 44.839844 18.234375 L 44.691406 17.84375 L 41.121094 12.117188 C 40.898438 11.480469 40.457031 11.160156 39.820312 11.160156 L 35 11.160156 L 35 10.207031 C 35 7.246094 34.070312 4.820312 32.1875 2.886719 C 30.300781 0.953125 27.925781 0 25.039062 0 C 22.125 0 19.734375 0.960938 17.84375 2.886719 C 15.964844 4.804688 15.003906 7.246094 15.003906 10.207031 L 15.003906 11.160156 L 10.183594 11.160156 C 9.644531 11.160156 9.25 11.40625 9.03125 11.871094 L 8.933594 11.96875 L 5.285156 17.84375 C 5.164062 18.113281 5.089844 18.308594 5.089844 18.429688 C 4.945312 18.773438 4.871094 19.140625 4.871094 19.53125 L 4.871094 47.066406 C 4.871094 47.898438 5.15625 48.589844 5.726562 49.148438 C 6.308594 49.714844 7.023438 50.003906 7.832031 50.003906 L 42.171875 50.003906 C 43.835938 50.003906 45.132812 48.730469 45.132812 47.066406 L 45.132812 19.53125 C 45.132812 19.066406 45.035156 18.625 44.839844 18.234375 Z M 35 13.878906 L 39.015625 13.878906 L 40.679688 16.570312 L 35 16.570312 Z M 17.71875 10.207031 C 17.71875 7.980469 18.398438 6.1875 19.75 4.796875 C 21.117188 3.394531 22.886719 2.691406 25.039062 2.691406 C 27.167969 2.691406 28.929688 3.402344 30.277344 4.796875 C 31.621094 6.191406 32.308594 7.980469 32.308594 10.207031 L 32.308594 11.160156 L 17.71875 11.160156 Z M 17.71875 13.878906 L 32.308594 13.878906 L 32.308594 16.570312 L 17.71875 16.570312 Z M 10.941406 13.878906 L 15.003906 13.878906 L 15.003906 16.570312 L 9.300781 16.570312 Z M 42.417969 47.066406 C 42.417969 47.238281 42.34375 47.3125 42.171875 47.3125 L 7.832031 47.3125 C 7.660156 47.3125 7.585938 47.238281 7.585938 47.066406 L 7.585938 19.53125 C 7.585938 19.359375 7.660156 19.285156 7.832031 19.285156 L 42.171875 19.285156 C 42.34375 19.285156 42.417969 19.359375 42.417969 19.53125 Z M 42.417969 47.066406 "/>
</g>
</svg>
